# xmcd
#
# Track frame offsets: 
#        150
#        17945
#        36654
#        51661
#        73113
#        89836
#        109743
#        128231
#        145626
#        159868
#        179289
#        193392
#        210720
#        235301
#        254598
#        277011
#
# Disc length: 3931 seconds
#
# Revision: 3
# Processed by: cddbd v1.5.2PL0 Copyright (c) Steve Scherf et al.
# Submitted via: ExactAudioCopyFreeDBPlugin 1.0
#
DISCID=030f5910
DTITLE=Jennifer Lopez - Dance Again... The Hits (Deluxe Edition)
DYEAR=2012
DGENRE=R&B
TTITLE0=Jennifer Lopez feat. Pitbull - Dance Again
TTITLE1=Jennifer Lopez feat. Flo Rida - Goin' In
TTITLE2=Jennifer Lopez feat. Lil Wayne - I'm Into You
TTITLE3=Jennifer Lopez feat. Pitbull - On The Floor
TTITLE4=Love Don't Cost A Thing
TTITLE5=If You Had My Love
TTITLE6=Waiting For Tonight
TTITLE7=Jennifer Lopez  feat. Fabolous - Get Right
TTITLE8=Jennifer Lopez feat. Styles P. and Jadakiss - Jenny From The Blo
TTITLE8=ck (Track Masters Remix)
TTITLE9=Jennifer Lopez feat. Ja Rule - I'm Real (Remix)
TTITLE10=Do It Well
TTITLE11=Jennifer Lopez  feat. Ja Rule and Caddillac Tah - Ain't It Funn
TTITLE11=y (Remix)
TTITLE12=Jennifer Lopez feat. Big Pun and Fat Joe - Feelin' So Good (Rem
TTITLE12=ix)
TTITLE13=Jennifer Lopez feat. LL Cool J - All I Have
TTITLE14=Que Hiciste
TTITLE15=Let's Get Loud
EXTD=
EXTT0=
EXTT1=
EXTT2=
EXTT3=
EXTT4=
EXTT5=
EXTT6=
EXTT7=
EXTT8=
EXTT9=
EXTT10=
EXTT11=
EXTT12=
EXTT13=
EXTT14=
EXTT15=
PLAYORDER=
